<?xml version="1.0" encoding="UTF-8"?>
<svg id="svg2" xmlns="http://www.w3.org/2000/svg" viewBox="0 0 256.43 526.67">
  <path id="path4064-3" d="m142.2,63.59c-10.09-6.79-30.32,2.3-26.96,11.31,1.01,2.7,5-4.14,8.87-7.27,2.72-2.2,6.93.71,12.01,1.41,4.74.64,6.56.37,7.8-1.18,1.37-1.69,1.09-2.38-1.72-4.27Zm0,0c-10.09-6.79-30.32,2.3-26.96,11.31,1.01,2.7,5-4.14,8.87-7.27,2.72-2.2,6.93.71,12.01,1.41,4.74.64,6.56.37,7.8-1.18,1.37-1.69,1.09-2.38-1.72-4.27Zm0,0c-10.09-6.79-30.32,2.3-26.96,11.31,1.01,2.7,5-4.14,8.87-7.27,2.72-2.2,6.93.71,12.01,1.41,4.74.64,6.56.37,7.8-1.18,1.37-1.69,1.09-2.38-1.72-4.27Zm0,0c-10.09-6.79-30.32,2.3-26.96,11.31,1.01,2.7,5-4.14,8.87-7.27,2.72-2.2,6.93.71,12.01,1.41,4.74.64,6.56.37,7.8-1.18,1.37-1.69,1.09-2.38-1.72-4.27Zm0,0c-10.09-6.79-30.32,2.3-26.96,11.31,1.01,2.7,5-4.14,8.87-7.27,2.72-2.2,6.93.71,12.01,1.41,4.74.64,6.56.37,7.8-1.18,1.37-1.69,1.09-2.38-1.72-4.27Zm0,0c-10.09-6.79-30.32,2.3-26.96,11.31,1.01,2.7,5-4.14,8.87-7.27,2.72-2.2,6.93.71,12.01,1.41,4.74.64,6.56.37,7.8-1.18,1.37-1.69,1.09-2.38-1.72-4.27Zm0,0c-10.09-6.79-30.32,2.3-26.96,11.31,1.01,2.7,5-4.14,8.87-7.27,2.72-2.2,6.93.71,12.01,1.41,4.74.64,6.56.37,7.8-1.18,1.37-1.69,1.09-2.38-1.72-4.27Zm0,0c-10.09-6.79-30.32,2.3-26.96,11.31,1.01,2.7,5-4.14,8.87-7.27,2.72-2.2,6.93.71,12.01,1.41,4.74.64,6.56.37,7.8-1.18,1.37-1.69,1.09-2.38-1.72-4.27Zm0,0c-10.09-6.79-30.32,2.3-26.96,11.31,1.01,2.7,5-4.14,8.87-7.27,2.72-2.2,6.93.71,12.01,1.41,4.74.64,6.56.37,7.8-1.18,1.37-1.69,1.09-2.38-1.72-4.27Zm0,0c-10.09-6.79-30.32,2.3-26.96,11.31,1.01,2.7,5-4.14,8.87-7.27,2.72-2.2,6.93.71,12.01,1.41,4.74.64,6.56.37,7.8-1.18,1.37-1.69,1.09-2.38-1.72-4.27Zm88-40.23c-7.97-1.26-8.85.81-14.15,3.22-10.29,4.68-13.65,18.43-17.67,44.95-3.35,22.16.94,15.98-3.35,22.16-3.98,5.72-9.28,31.79-9.68,35.48-.41,3.69-3.87,12.73-4.58,20.46l-1.31,14.41-1.65,15.19c1.5,15.84-3.26,17.61-4.7,19.63-1.63,2.28-2.03,6.13-4.47-3.34-4.75-18.41-2.76-33.04-3.58-51.55-.5-11.37-.79-17.27-1.8-31.67-.44-6.16-3.1-30.79-3.77-32.08-.68-1.29-1.85-11.75-2.6-23.23-1.68-25.43-4.07-37.69-8.86-45.46-4.13-6.7-12.28-11.53-19.46-11.53-6.24,0-21.8,12.48-21.8,12.48-4.44,6.5-8.06,9.27-8.06,14.58,0,11.83,4.98,74.17,5.36,87.84.43,15.31-.76,20.22-.2,30.81l1.58,29.89.85,13.68c1.22,8.29-.09,17.35.29,18.68.56,1.92.1,2.32-2.28,1.97-.08-.01-.15-.01-.23,0-1.98-15.56-10.3-47-13.09-68.74-1.72-13.39-3.94-30.77-7.05-40.61-10.11-31.97-10.55-43.05-19.3-52.04-12.02-12.35-28.78-11.62-38.13,1.66-6.17,8.76-9.26,19.41-8.61,37,.5,13.61,1.19,17.67,3.42,26.73,3.64,14.78,6.27,24.6,9.87,40.88,1.74,7.88,6.25,21,8.3,29.6,2.05,8.6,3.57,15.74,3.38,15.87-.18.14-3.12,2.19-6.53,4.56-8.27,5.74-10.08,10.46-10.61,27.52-.45,14.85-.57,15.18-10.12,27.23-6.42,8.1-6.19,7.45-9.44,27.07-7.43,44.79-8.16,82.49-2.13,108.68,4.49,19.49,17.44,88.01,20.2,98.66l4.6,17.79c2.1,13.99-2.76,17.6,15.56,11.84,2.51-.78,4.16.19,4.31.28-.01-.07-.11-.38-.27-.89-.12-.38-.27-.88-.46-1.47-1.61-5.09-5.55-17.12-8.74-23.55-1.38-2.79-6.14-22.42-8.81-38.72-2.67-16.31-7.05-33.74-9.53-40.97-6.22-18.2-9.69-40.22-9.57-60.86.11-20.81,1.35-30.32,4.16-31.94,1.17-.67,3.01-2.97,4.08-5.1,1.66-3.29,2.7-3.87,6.96-3.87,3.35,0,5.41-.73,6.21-2.19,1.07-1.98,1.74-1.85,6.93,1.27,3.15,1.9,7.39,5.55,9.41,8.11,2.02,2.55,5.23,6.61,7.12,9,4.15,5.25,17.76,12.62,25.18,13.64,4.32.6,5.19,1.15,4.48,2.86-18.8,44.88,9.52,90.05,12.52,100.87-3-10.82,0,0,4.32,1.9,0,0-18.15-33.17-17.13-63.52.04-19.44,8.59-37.04,16.72-43.37,9.33-7.27,9.45-7.26,16.41.77,9.84,11.35,12.71,12.7,26.83,12.6,9.65-.07,11.37-.36,8.79-1.48-19.27-8.4-25.38-13.64-33.65-28.85-3.6-6.62-5.01-11.12-6.11-19.62-.79-6.07-1.93-12.37-2.52-13.99-1.7-4.61-12.81-11.01-34.8-20.06-23.63-9.72-32.24-15.29-36.25-23.46-2.73-5.55-5.15-16.7-3.9-17.98.7-.72,17.1,6.34,28.72,12.38,4.38,2.27,8.19,4.13,8.48,4.13s1.2-2.81,2.03-6.24c2.02-8.29,6.83-16.56,12.02-20.63l4.23-3.31,16.46,7.51c22.21,10.12,24.99,13.01,33.87,35.15,6.5,16.19,7.31,17.52,15.68,25.61,4.86,4.7,11.85,11.49,15.53,15.11l6.7,6.56,9.03,28.9c12.72,40.67,12.41,39.02,9.41,49.95-4.75,17.36-13.25,45.99-20.25,68.26-6,19.08-7.12,24.24-7.7,35.47l-.67,13.14.33.16h0l1.4.7,2.92,1.43c8.17,4,9.68,3.71,9.7-9.86.01-13.13-1.25-13.12,17.93-76.51,4.37-14.44,10.57-36.02,13.78-47.94l5.82-21.67-.2-27.58c-.19-25.37.15-30.11,4.29-59.1,2.48-17.34,6.44-41.57,8.81-53.85,2.36-12.29,6.39-38,8.96-57.14,2.56-19.14,6.39-45.15,8.5-57.79,8.32-49.86,2.49-68.51-22.68-72.52ZM23.19,307.32c-.6.57-2.39,1.44-3.97,1.93-2.53.79-2.86.45-2.73-2.8.09-2.04.59-5.48,1.13-7.64l.98-3.95.15,4.23c.1,2.84,1.03,4.7,2.84,5.7,1.48.82,2.2,1.95,1.6,2.53Zm41.31-26.09c6.19,2.24,13.55,5.3,16.36,6.8l5.11,2.71-4.14.91c-5.38,1.18-7.65,3.21-8.61,7.7-1.06,4.97,4.21,27.32,10.09,30.13l5,2.39-2.17-12.22c.55-2.8.61-6.4.61-6.4-1.03-3.61-3.33-9.72-1.62-11.49,2.39-2.44,12.75-2,16.87,1.43,2.27,1.88,2.91,4.07,3.37,11.45.64,10.36-1.74,16.03-8.16,19.41-14.33,7.54-29.04.33-43.54-21.31-4.66-6.97-6.66-8.72-13.59-11.92-5.53-2.55-8.87-5.04-10.46-7.81-2.59-4.51-2.8-4.59-7.44-2.77-3.88,1.51-3.79,2.38-1.26-11.69,1.67-9.27,2.74-12.03,6.01-15.55l3.99-4.28,5.17,5.08c8.22,8.08,16.32,13.05,28.41,17.43Zm9.78-50.08c-2.17,3.94-8.55,6.4-8.55,6.4,0,0-3.9-.28-10.73-3.64-13.25-6.53-20.22-16.07-15.29-20.82,6.45-6.21,16.33-10.86,29.31-6.65,9.17,2.97,3.02,8.37,7.35,10.29,6.15,2.72.07,10.48-2.09,14.42Zm12.65-27.68c-.53-.07-4.34-1.57-8.47-3.36-4.13-1.78-10.63-3.65-14.43-4.15l-6.91-.92-7.39-19.7c-5.28-14.11-3.32-6.15-8.36-22.41-3.39-10.95-5.36-14-7.56-26.67-3.18-18.26-5.31-25.53-5.31-38.5,0-19.58,6.19-33.29,14.21-35.65,6.04-1.78,12.98,2.1,15.86,8.87,3.97,9.32,3.81,9.91-3.26,12.34-3.51,1.21-6.39,2.79-6.39,3.52s3.28,1.61,7.3,1.98c4.01.36,7.61,2.1,8.72,2.13,0,0,5.75,12.33,9.04,22.96,5.57,18.03,3.86,25.54,7.61,45.71,5.09,27.41,6.3,30.09,6.3,41.69,0,6.75-.43,12.22-.96,12.16Zm156.08-103.22c-2.45,16.73-9.65,43.01-11.37,59.99-2.23,21.98-4.45,36.53-7.72,50.57-2.53,10.83-6.68,30.04-9.22,42.68-4.47,22.17-4.65,24.16-5.13,56.15-.28,18.24-.94,33.17-1.48,33.17s-1.67-2.52-2.52-5.59c-.85-3.07-4.77-12.25-8.7-20.41-6.65-13.77-8.09-15.74-20.26-27.68-14.63-14.36-18.18-19.64-26.69-39.69-6.61-15.56-12.46-22.94-22.24-28.03l-6.1-3.18-4.2-15.31c-2.31-8.44-1.86-16.79-2.3-46.86-.34-23.49-.5-24.81-1.05-35.36-.29-5.51-.01-9.44-1.38-29.43-.9-13.01-1.54-30.77-2.98-37.89-3.07-15.19-3.3-23.26-.82-28.16,3.86-7.63,12.94-13.4,21.1-13.4,4.48,0,5.41.54,7.23,4.16,5.39,10.71,7.04,18.92,8.42,41.81,1.14,19.07,3.51,23.95,4.5,31.21,1.83,13.39,2.52,18.82,3.56,45.26.9,23.19.31,23.71,1.83,43.84l1.62,21.58-3.95,4.62c-6.11,7.16-4.97,10.94,1.91,6.32,2.77-1.87,3.88-1.94,8.16-.48,3.21,1.08,7.35,1.35,11.76.76,3.74-.5,4.89.45,7.94.53,5.96.15,11.83-5.98,6.3-5.78,0,0-1.5-8.17-2.45-20.3-1.92-24.47,3.17-34.67,7.83-58.44.6-3.08,1.86-10.16,3.78-17.75,1.92-7.58,5.5-5.18,7.18-8.93,2.6-5.82,3.47-6.71,5.9-6.1,1.92.48,4.12-.39,6.72-2.64,3.4-2.93,6.88-4.47,10.32-3.24,2.81,1.01,5.42,2.94,7.64,1.9,4.04-1.89,5.17-2.33.84-4.61-6.14-3.23-15.55-5.65-21.42-3.57-3.06,1.09-5.74,1.8-5.94,1.59s.41-8.09,1.37-17.51c2.65-26.14,8.3-35.97,20.26-31.78,8.93,3.13,13.29,8.61,14.86,22.01,1.25,10.69,1,15.98-3.11,43.97Zm-100.81-36.66c-10.09-6.79-30.32,2.3-26.96,11.31,1.01,2.7,5-4.14,8.87-7.27,2.72-2.2,6.93.71,12.01,1.41,4.74.64,6.56.37,7.8-1.18,1.37-1.69,1.09-2.38-1.72-4.27Zm0,0c-10.09-6.79-30.32,2.3-26.96,11.31,1.01,2.7,5-4.14,8.87-7.27,2.72-2.2,6.93.71,12.01,1.41,4.74.64,6.56.37,7.8-1.18,1.37-1.69,1.09-2.38-1.72-4.27Zm0,0c-10.09-6.79-30.32,2.3-26.96,11.31,1.01,2.7,5-4.14,8.87-7.27,2.72-2.2,6.93.71,12.01,1.41,4.74.64,6.56.37,7.8-1.18,1.37-1.69,1.09-2.38-1.72-4.27Zm0,0c-10.09-6.79-30.32,2.3-26.96,11.31,1.01,2.7,5-4.14,8.87-7.27,2.72-2.2,6.93.71,12.01,1.41,4.74.64,6.56.37,7.8-1.18,1.37-1.69,1.09-2.38-1.72-4.27Zm0,0c-10.09-6.79-30.32,2.3-26.96,11.31,1.01,2.7,5-4.14,8.87-7.27,2.72-2.2,6.93.71,12.01,1.41,4.74.64,6.56.37,7.8-1.18,1.37-1.69,1.09-2.38-1.72-4.27Zm0,0c-10.09-6.79-30.32,2.3-26.96,11.31,1.01,2.7,5-4.14,8.87-7.27,2.72-2.2,6.93.71,12.01,1.41,4.74.64,6.56.37,7.8-1.18,1.37-1.69,1.09-2.38-1.72-4.27Zm0,0c-10.09-6.79-30.32,2.3-26.96,11.31,1.01,2.7,5-4.14,8.87-7.27,2.72-2.2,6.93.71,12.01,1.41,4.74.64,6.56.37,7.8-1.18,1.37-1.69,1.09-2.38-1.72-4.27Zm0,0c-10.09-6.79-30.32,2.3-26.96,11.31,1.01,2.7,5-4.14,8.87-7.27,2.72-2.2,6.93.71,12.01,1.41,4.74.64,6.56.37,7.8-1.18,1.37-1.69,1.09-2.38-1.72-4.27Zm0,0c-10.09-6.79-30.32,2.3-26.96,11.31,1.01,2.7,5-4.14,8.87-7.27,2.72-2.2,6.93.71,12.01,1.41,4.74.64,6.56.37,7.8-1.18,1.37-1.69,1.09-2.38-1.72-4.27Z"/>
  <path d="m23.19,307.32c-.6.57-2.39,1.44-3.97,1.93-2.53.79-2.86.45-2.73-2.8.09-2.04.59-5.48,1.13-7.64l.98-3.95.15,4.23c.1,2.84,1.03,4.7,2.84,5.7,1.48.82,2.2,1.95,1.6,2.53Z" style="fill: #fff;"/>
  <path d="m74.28,231.15c-2.17,3.94-8.55,6.4-8.55,6.4,0,0-3.9-.28-10.73-3.64-13.25-6.53-20.22-16.07-15.29-20.82,6.45-6.21,16.33-10.86,29.31-6.65,9.17,2.97,3.02,8.37,7.35,10.29,6.15,2.72.07,10.48-2.09,14.42Z" style="fill: #fff;"/>
  <path d="m87.89,191.31c0,6.75-.43,12.22-.96,12.16-.53-.07-4.34-1.57-8.47-3.36-4.13-1.78-10.63-3.65-14.43-4.15l-6.91-.92-7.39-19.7c-5.28-14.11-3.32-6.15-8.36-22.41-3.39-10.95-5.36-14-7.56-26.67-3.18-18.26-5.31-25.53-5.31-38.5,0-19.58,6.19-33.29,14.21-35.65,6.04-1.78,12.98,2.1,15.86,8.87,3.97,9.32,3.81,9.91-3.26,12.34-3.51,1.21-6.39,2.79-6.39,3.52s3.28,1.61,7.3,1.98c4.01.36,7.61,2.1,8.72,2.13,0,0,5.75,12.33,9.04,22.96,5.57,18.03,3.86,25.54,7.61,45.71,5.09,27.41,6.3,30.09,6.3,41.69Z" style="fill: #fff;"/>
  <path d="m246.12,56.28c-1.57-13.4-5.93-18.88-14.86-22.01-11.96-4.19-17.61,5.64-20.26,31.78-.96,9.42-1.57,17.3-1.37,17.51s2.88-.5,5.94-1.59c5.87-2.08,15.28.34,21.42,3.57,4.33,2.28,3.2,2.72-.84,4.61-2.22,1.04-4.83-.89-7.64-1.9-3.44-1.23-6.92.31-10.32,3.24-2.6,2.25-4.8,3.12-6.72,2.64-2.43-.61-3.3.28-5.9,6.1-1.68,3.75-5.26,1.35-7.18,8.93-1.92,7.59-3.18,14.67-3.78,17.75-4.66,23.77-9.75,33.97-7.83,58.44.95,12.13,2.45,20.3,2.45,20.3,5.53-.2-.34,5.93-6.3,5.78-3.05-.08-4.2-1.03-7.94-.53-4.41.59-8.55.32-11.76-.76-4.28-1.46-5.39-1.39-8.16.48-6.88,4.62-8.02.84-1.91-6.32l3.95-4.62-1.62-21.58c-1.52-20.13-.93-20.65-1.83-43.84-1.04-26.44-1.73-31.87-3.56-45.26-.99-7.26-3.36-12.14-4.5-31.21-1.38-22.89-3.03-31.1-8.42-41.81-1.82-3.62-2.75-4.16-7.23-4.16-8.16,0-17.24,5.77-21.1,13.4-2.48,4.9-2.25,12.97.82,28.16,1.44,7.12,2.08,24.88,2.98,37.89,1.37,19.99,1.09,23.92,1.38,29.43.55,10.55.71,11.87,1.05,35.36.44,30.07-.01,38.42,2.3,46.86l4.2,15.31,6.1,3.18c9.78,5.09,15.63,12.47,22.24,28.03,8.51,20.05,12.06,25.33,26.69,39.69,12.17,11.94,13.61,13.91,20.26,27.68,3.93,8.16,7.85,17.34,8.7,20.41.85,3.07,1.98,5.59,2.52,5.59s1.2-14.93,1.48-33.17c.48-31.99.66-33.98,5.13-56.15,2.54-12.64,6.69-31.85,9.22-42.68,3.27-14.04,5.49-28.59,7.72-50.57,1.72-16.98,8.92-43.26,11.37-59.99,4.11-27.99,4.36-33.28,3.11-43.97Zm-102.2,11.58c-1.24,1.55-3.06,1.82-7.8,1.18-5.08-.7-9.29-3.61-12.01-1.41-3.87,3.13-7.86,9.97-8.87,7.27-3.36-9.01,16.87-18.1,26.96-11.31,2.81,1.89,3.09,2.58,1.72,4.27Z" style="fill: #fff;"/>
  <path d="m97.21,334.05c-14.33,7.54-29.04.33-43.54-21.31-4.66-6.97-6.66-8.72-13.59-11.92-5.53-2.55-8.87-5.04-10.46-7.81-2.59-4.51-2.8-4.59-7.44-2.77-3.88,1.51-3.79,2.38-1.26-11.69,1.67-9.27,2.74-12.03,6.01-15.55l3.99-4.28,5.17,5.08c8.22,8.08,16.32,13.05,28.41,17.43,6.19,2.24,13.55,5.3,16.36,6.8l5.11,2.71-4.14.91c-5.38,1.18-7.65,3.21-8.61,7.7-1.06,4.97,4.21,27.32,10.09,30.13l5,2.39-2.17-12.22c.55-2.8.61-6.4.61-6.4-1.03-3.61-3.33-9.72-1.62-11.49,2.39-2.44,12.75-2,16.87,1.43,2.27,1.88,2.91,4.07,3.37,11.45.64,10.36-1.74,16.03-8.16,19.41Z" style="fill: #fff;"/>
  <path d="m199.25,388.16c-4.75,17.36-13.25,45.99-20.25,68.26-6,19.08-7.12,24.24-7.7,35.47l-.67,13.14.33.16-122.98,16.36c-1.61-5.09-5.55-17.12-8.74-23.55-1.38-2.79-6.14-22.42-8.81-38.72-2.67-16.31-7.05-33.74-9.53-40.97-6.22-18.2-9.69-40.22-9.57-60.86.11-20.81,1.35-30.32,4.16-31.94,1.17-.67,3.01-2.97,4.08-5.1,1.66-3.29,2.7-3.87,6.96-3.87,3.35,0,5.41-.73,6.21-2.19,1.07-1.98,1.74-1.85,6.93,1.27,3.15,1.9,7.39,5.55,9.41,8.11,2.02,2.55,5.23,6.61,7.12,9,4.15,5.25,17.76,12.62,25.18,13.64,4.32.6,5.19,1.15,4.48,2.86-18.8,44.88,9.52,90.05,12.52,100.87-3-10.82,0,0,4.32,1.9,0,0-18.15-33.17-17.13-63.52.04-19.44,8.59-37.04,16.72-43.37,9.33-7.27,9.45-7.26,16.41.77,9.84,11.35,12.71,12.7,26.83,12.6,9.65-.07,11.37-.36,8.79-1.48-19.27-8.4-25.38-13.64-33.65-28.85-3.6-6.62-5.01-11.12-6.11-19.62-.79-6.07-1.93-12.37-2.52-13.99-1.7-4.61-12.81-11.01-34.8-20.06-23.63-9.72-32.24-15.29-36.25-23.46-2.73-5.55-5.15-16.7-3.9-17.98.7-.72,17.1,6.34,28.72,12.38,4.38,2.27,8.19,4.13,8.48,4.13s1.2-2.81,2.03-6.24c2.02-8.29,6.83-16.56,12.02-20.63l4.23-3.31,16.46,7.51c22.21,10.12,24.99,13.01,33.87,35.15,6.5,16.19,7.31,17.52,15.68,25.61,4.86,4.7,11.85,11.49,15.53,15.11l6.7,6.56,9.03,28.9c12.72,40.67,12.41,39.02,9.41,49.95Z" style="fill: #fff;"/>
  <path d="m172.37,505.89c-62.36,27.34-110.17,20.15-123.93,17.13-.12-.38-.27-.88-.46-1.47l122.98-16.36h0l1.4.7Z" style="fill: #fff; stroke: #000; stroke-miterlimit: 10;"/>
  <path d="m48.44,523.02c-2.63-.58-4.02-1-4.02-1l3.56-.47c.19.59.34,1.09.46,1.47Z" style="fill: #fff; stroke: #000; stroke-miterlimit: 10;"/>
  <path d="m175.2,504.63c-.95.43-1.89.85-2.83,1.26l-1.4-.7,4.23-.56Z" style="fill: #fff; stroke: #000; stroke-miterlimit: 10;"/>
</svg>